<?xml version="1.0" encoding="utf-8"?>
<!-- Generator: Adobe Illustrator 23.0.3, SVG Export Plug-In . SVG Version: 6.00 Build 0)  -->
<svg version="1.1" id="Layer_1" xmlns="http://www.w3.org/2000/svg" xmlns:xlink="http://www.w3.org/1999/xlink" x="0px" y="0px"
	 viewBox="0 0 612 792" style="enable-background:new 0 0 612 792;" xml:space="preserve">
<path d="M583.87,362.16c-18.18,16.63-41.1,20.48-64.12,21.72c-32.35,1.75-64.81,1.71-97.22,1.92c-9.52,0.06-16.27,2.85-20.73,11.63
	c-3.82,7.51-8.63,14.52-13.64,22.8c6.89,0.59,12.47,1.28,18.07,1.48c5.5,0.2,8.09,2.21,8.23,8.22c0.42,17.7-0.07,18.49-17.64,17.68
	c-7.83-0.36-15.64-1.12-24.44-1.76c-14.78,23.59-30.19,48.14-45.56,72.72c-11.92,19.05-24.29,37.85-35.55,57.28
	c-8.01,13.83-17.29,26.01-31.14,34.34c-1.07,0.65-1.7,2.05-2.53,3.1c-3.42,0-6.83,0-10.25,0c0.54-3.52,0.42-7.3,1.72-10.51
	c9.23-22.96,18.78-45.8,28.16-68.71c1.53-3.75,4.61-7.61-0.45-11.36c-0.54-0.4,0.39-4.5,1.2-4.71c9.89-2.6,9.82-8.97,7.69-13.69
	c4.79-8.71,8.52-15.48,12.03-21.87c-2.75-3.01-4.57-5-8.12-8.88c4.86,0.55,6.93,0.78,9.83,1.11c2.63-6.95,5.3-14.01,8.03-21.24
	c-3.15-1.99-5.82-3.68-8.49-5.37c-0.44-0.72-0.89-1.43-1.33-2.15c14.84-0.28,16.25-10.51,18.48-20.83
	c-8.52-2.32-9.91-3.85-2.25-10.96c6.54-6.06,8.77-16.75,13.63-26.89c-4.68-0.3-7.62-0.61-10.57-0.66
	c-27.89-0.51-55.82-0.23-83.66-1.67c-27.51-1.42-54.96-4.32-82.37-7.13c-7.55-0.78-12.47,0.19-16.69,7.44
	c-8.01,13.75-18.16,26.29-25.75,40.24c-6.73,12.36-16.21,15.36-31.01,12.99c4.71-23.27,13.57-45.34,19.35-69.18
	c-7.74-2.1-15.47-4.19-23.19-6.29c0.1-0.98,0.2-1.96,0.3-2.93c7.16-2.39,14.31-4.79,22.57-7.55c-2.2-7.75-4.27-15.31-6.51-22.82
	c-3.99-13.36-7.95-26.72-12.21-39.99c-1.91-5.94,0.29-7.64,5.96-7.81c9.61-0.29,16.64,2.92,22.04,11.45
	c9.88,15.63,20.52,30.79,31.26,45.84c1.75,2.45,5.96,5.16,8.49,4.72c46.5-8.17,93.51-7.77,140.43-9.14
	c9.1-0.27,18.19-1.26,27.28-1.32c6.56-0.04,8.51-2.8,7.46-8.93c-0.92-5.32-0.93-10.83-2.23-16.03c-0.52-2.1-3.22-3.85-5.23-5.34
	c-1.81-1.34-4.05-2.1-6.09-3.12c2.11-1.42,4.19-2.9,6.35-4.24c0.68-0.42,1.57-0.5,3.56-1.08c-3.02-7.97-5.95-15.72-9.34-24.71
	c-2.03,2.28-2.94,3.92-4.33,4.63c-0.84,0.43-2.58-0.35-3.57-1.06c-0.34-0.24,0.1-2.68,0.62-2.86c7.75-2.69,4.75-7.89,3.73-13.2
	c-1.21-6.31-4.86-8.27-10.62-8.42c-1.09-0.03-2.15-1.44-4.02-2.79c2.82-2.3,5.07-4.14,8.08-6.6c-2.45-6.31-4.99-12.84-7.54-19.4
	c-2.92,0.52-5.26,0.94-8.81,1.57c1-2.31,1.23-4.03,2.21-4.89c4.79-4.22,4.25-11.29-1.81-12.74c-10-2.4-4.59-5.42-0.29-9.29
	c-10.23-24.12-20.65-48.43-30.77-72.85c-1.27-3.06-0.96-6.76-1.39-10.17c3.76,0.41,7.86,0.01,11.22,1.39
	c12.02,4.95,20.02,14.16,26.78,25.18c26.34,42.93,53.15,85.58,79.79,128.33c1.79,2.88,3.63,5.73,5.5,8.68
	c11.97-6.39,24.58-3.09,36.78-3.62c1.62-0.07,4.85,3.47,4.88,5.38c0.39,20.3,2.52,19.16-16.18,20.01
	c-3.11,0.14-6.21,0.34-11.64,0.65c7.48,11.4,13.43,22.3,21.3,31.55c2.99,3.52,10.39,4.4,15.83,4.54
	c26.74,0.69,53.51,1.22,80.26,0.86c28.72-0.38,55.99,3.85,80.22,20.52C583.87,357.61,583.87,359.89,583.87,362.16z"/>
</svg>
